<svg xmlns="http://www.w3.org/2000/svg" viewBox="0 0 235.17 122.22"><defs><style>.cls-1{fill:#e38234;}.cls-2{fill:#515151;}</style></defs><g id="Layer_2" data-name="Layer 2"><g id="Layer_1-2" data-name="Layer 1"><g id="_5vNbLS.tif" data-name="5vNbLS.tif"><path class="cls-1" d="M124.44,33.67c1-1.17,1.59-2.55,2.55-3.72a25.21,25.21,0,0,1,18.74-9.43c6.68-.43,12.78,1.5,18.61,4.51,1.81.93,3.57,1.95,5.35,2.93a3,3,0,0,0,1,.46,1.21,1.21,0,0,0,.81.47c1.93,1.32,4,2.39,6,3.52A16.66,16.66,0,0,0,180.73,34a2.31,2.31,0,0,0,1.47.65A8.28,8.28,0,0,0,184.92,36a42.76,42.76,0,0,0,11.21,3,.84.84,0,0,0,.77.08,4.42,4.42,0,0,0,.48.15,49.9,49.9,0,0,0,20.05-1.46,17.29,17.29,0,0,0,4-1.49,1,1,0,0,0,1-.43,5.48,5.48,0,0,0,2.51-1.23,1.49,1.49,0,0,0,1.21-.61c.22,0,.37-.09.54-.19A32.9,32.9,0,0,0,230.81,31a5.45,5.45,0,0,1,1.35-.89,2,2,0,0,1,2.11.19,2.08,2.08,0,0,1,.86,2.1c-.07.4-.18.78-.28,1.17a1,1,0,0,0-.43.89s-.11,0-.13.1a38.53,38.53,0,0,1-10.77,12.66,5,5,0,0,0-1.27,1.11,1.31,1.31,0,0,0-.88.62c-1.48.91-3,1.8-4.43,2.73a1.77,1.77,0,0,0-.61.81,19.58,19.58,0,0,1-3.25,4.71,10.34,10.34,0,0,0-1.64,1.73.61.61,0,0,0-.61.47,1.34,1.34,0,0,0-.39.16,33,33,0,0,1-12.6,5.74,1.54,1.54,0,0,0-.79.3.92.92,0,0,0-.91.19,2.42,2.42,0,0,0-1.21.59,34.33,34.33,0,0,1-24.53,5.24,33.46,33.46,0,0,1-11.19-4c-3.9-2.2-7.26-5.16-10.93-7.69a19,19,0,0,0-4-2.29,8.88,8.88,0,0,0-1.4-.4c-.35-.07-.8-.23-1,.15s.09.66.28.93a20,20,0,0,1,3,7c2,9.09-.06,16.94-7.24,23.18a27.44,27.44,0,0,1-10.57,5.69c-.93.27-1.06.47-.83,1.7.49,2.65.81,5.32,1,8a26.64,26.64,0,0,1-.72,10.13,10.83,10.83,0,0,1-9,8c-4.64.82-8.53-.56-11.3-4.44-2.66-3.72-2.6-8.23-.15-12.28a13.78,13.78,0,0,1,2.2-2.74,2.13,2.13,0,0,1,3.06-.22,2.1,2.1,0,0,1,0,3.13,10.23,10.23,0,0,0-2.53,4.13,6.59,6.59,0,0,0,7.11,8.36,7.28,7.28,0,0,0,6.88-6.41c.73-4,.22-7.86-.27-11.78-.14-1.19-.39-2.37-.53-3.56-.09-.72-.41-1-1.12-1a28.9,28.9,0,0,1-7-.4,26.78,26.78,0,0,1-16.25-9.35A25,25,0,0,1,92,69.59a29.73,29.73,0,0,1,1.69-10.7c.52-1.47.1-1.94-1.48-1.67a12.12,12.12,0,0,0-4.92,2.34c-3,2.08-5.8,4.29-8.78,6.32a33.74,33.74,0,0,1-24,5.82,31.2,31.2,0,0,1-12.32-4.28A28.5,28.5,0,0,0,35,64.58a29.29,29.29,0,0,1-11.9-6.44A16.91,16.91,0,0,1,19.13,53a4.63,4.63,0,0,0-1.94-2.07A45.63,45.63,0,0,1,5.55,41.41,31.84,31.84,0,0,1,.21,33.06a2.29,2.29,0,0,1,.52-2.67,2.19,2.19,0,0,1,2.65,0C5,31.5,6.5,32.78,8.21,33.79a40.93,40.93,0,0,0,12.84,4.92,50.85,50.85,0,0,0,22.89-.56,57.59,57.59,0,0,0,13.61-5.63c4.78-2.64,9.4-5.58,14.31-8,5.27-2.58,10.77-4.26,16.69-4C97.8,21,105.17,24.84,110,33c.63,1,.75,1,1.57.14a2.27,2.27,0,0,0,.55-2.1c-.77-4.78-1.56-9.55-2.14-14.34a19.93,19.93,0,0,1,1.17-10.47,9.76,9.76,0,0,1,11.23-6C125.28.7,127,2.76,128,5.37c1.92,5.15,1.31,10.17-1,15.06a39.69,39.69,0,0,1-6,8.75c-.18.22-.43.39-.47.7h0a.67.67,0,0,0-.52.59v0a13.36,13.36,0,0,0-2.83,3.08l-.09.33a1.55,1.55,0,0,0,0,.93c.28,1.88.57,3.77.87,5.65.41,2.61.83,5.23,1.24,7.84.09.53.32.86.92.57a.7.7,0,0,0,.63-.06,3.85,3.85,0,0,0,.59,0,20.9,20.9,0,0,1,16.31,4.44,1.32,1.32,0,0,0,1.57.17,6.64,6.64,0,0,1,4.43-.48l1.84.41a.25.25,0,0,0,.31.11.86.86,0,0,0,.25.22,34.36,34.36,0,0,1,6.07,3.66,25.69,25.69,0,0,0,3.32,2.37l.06,0a1.76,1.76,0,0,0,.27.33,39.94,39.94,0,0,0,10.05,5.84,28.42,28.42,0,0,0,17.11.95c.33-.08.86-.11.82-.58s-.54-.35-.86-.41a40.14,40.14,0,0,1-10.49-3.68c-.25-.13-.47-.34-.78-.31a.39.39,0,0,0-.41-.24,24.24,24.24,0,0,0-3.78-2.21h0a.39.39,0,0,0-.4-.31h0a3.32,3.32,0,0,0-.43-.41c-2-1.37-4-2.8-5.83-4.36-.88-.73-1.78-1.45-2.59-2.25a2.16,2.16,0,0,1-.22-2.89,2.06,2.06,0,0,1,2.91-.37,7.49,7.49,0,0,1,.95.73,67.41,67.41,0,0,0,6.78,5.25,5.83,5.83,0,0,0,2.13,1.23.36.36,0,0,0,.4.32A26.33,26.33,0,0,0,175.78,59a4.3,4.3,0,0,0,1.83.69.54.54,0,0,0,.51.19,1.21,1.21,0,0,0,.66.37A28.38,28.38,0,0,0,191.23,62a17,17,0,0,0,5-.84.56.56,0,0,0,.53-.07,11.33,11.33,0,0,0,3.93-1.23.3.3,0,0,0,.36-.09,20.16,20.16,0,0,0,6.41-3.31c.24-.16.65-.37.48-.71s-.61-.15-.92-.07a37,37,0,0,1-5.32.91c-1.59.12-3.19.19-4.78.28a.57.57,0,0,0-.66,0,9.7,9.7,0,0,0-2.28-.23,53.5,53.5,0,0,1-18.85-5.93,22.9,22.9,0,0,0-3.42-1.74l0-.06h-.07c-.11-.34-.45-.42-.71-.58a20.09,20.09,0,0,1-2.58-1.69,2.11,2.11,0,0,1,2.41-3.45c.56.3,1.09.65,1.62,1a54.56,54.56,0,0,0,19,7.71,20.43,20.43,0,0,0,4.93.49,1,1,0,0,0,.81,0,24.36,24.36,0,0,0,7.8-.61A38.35,38.35,0,0,0,219.24,45,12,12,0,0,0,222,42.73a.35.35,0,0,0,.32-.29,8.35,8.35,0,0,0,2.14-1.88.3.3,0,1,0-.34-.5,13.17,13.17,0,0,0-2.47,1.07c-.11-.06-.19,0-.24.1a1.38,1.38,0,0,0-.75.13,53.06,53.06,0,0,1-20,2.56,24.88,24.88,0,0,0-3.66-.21.67.67,0,0,0-.72-.06c-.23-.21-.53-.18-.81-.23-1.43-.28-2.87-.51-4.29-.84A61.82,61.82,0,0,1,174.92,36a21.88,21.88,0,0,0-3.24-1.73,1.49,1.49,0,0,0-1.14-.64,1.26,1.26,0,0,0-.6-.47c-2.09-1.2-4.15-2.43-6.27-3.57-4.83-2.58-9.83-4.6-15.44-4.73-6.53-.15-12.21,1.82-16.79,6.6a6.76,6.76,0,0,0-1.66,2.26.66.66,0,0,0-.43.66c-.47.28-.62.8-.86,1.24a29.26,29.26,0,0,0-2,5.45,2.1,2.1,0,0,1-2.76,1.47,2.27,2.27,0,0,1-1.33-2.8c.4-1.79,1.12-3.48,1.67-5.21A1,1,0,0,0,124.44,33.67ZM137.12,59a1.48,1.48,0,0,0-.21-.37c-4.37-4.8-9.82-6.29-16.09-5.26a.75.75,0,0,0-.69,1c.32,1.56.39,3.17.84,4.71a.85.85,0,0,0,.15.85c0,.31,0,.63.06.93.71,4.55,1.43,9.09,2.13,13.64q1.13,7.27,2.21,14.57c.12.78.5,1,1.18.75s1.57-.53,2.33-.85a20.56,20.56,0,0,0,10-8.29c3.21-5.44,3.35-11.17,1.05-17a12.17,12.17,0,0,0-2.44-4.07A.76.76,0,0,0,137.12,59ZM17.41,46.11c6,3.94,12.52,6.35,19.82,6.32A44.42,44.42,0,0,0,56,47.81a86.49,86.49,0,0,0,8.32-4.63,2.05,2.05,0,0,1,3,.76,2,2,0,0,1-.75,2.82,61.35,61.35,0,0,1-20,8.84,39.42,39.42,0,0,1-18.7-.08c-.34-.08-.81-.41-1,0s.36.56.6.81a1.59,1.59,0,0,0,.21.15A28.19,28.19,0,0,0,37.84,61a30.61,30.61,0,0,0,20.4-1.5,60.68,60.68,0,0,0,14.48-9.42,9.91,9.91,0,0,1,1.82-1.42,2.08,2.08,0,0,1,2.55,3.22,8.43,8.43,0,0,1-.86.83,79.22,79.22,0,0,1-8.69,6.57A44.38,44.38,0,0,1,53,65.7c-.62.14-1.24.23-1.86.35-.13,0-.31.08-.29.26s.13.19.22.23a4.48,4.48,0,0,0,.72.28,27.85,27.85,0,0,0,7.81,1,30.74,30.74,0,0,0,17.34-6C80.16,59.58,83.14,57,86.53,55c2.77-1.62,5.63-2.89,9-1.74.45.16.75-.08,1-.47q.72-1.22,1.5-2.4a133.43,133.43,0,0,1,8.92-11.85,1.46,1.46,0,0,0,.37-1.71,18.43,18.43,0,0,0-1.7-3.08A20.86,20.86,0,0,0,90.29,25c-5.89-.67-11.35.84-16.58,3.42C69.34,30.52,65.19,33.06,61,35.5c-8.29,4.81-17.09,8-26.75,8.39A53.09,53.09,0,0,1,13.54,41c-1.1-.39-2.18-.82-3.4-1.29.07.27.06.37.11.43a5.76,5.76,0,0,0,.5.59M96.32,69.21a24.8,24.8,0,0,0,.44,4.24,20.76,20.76,0,0,0,5.66,10.68c4.89,4.9,10.92,6.92,17.75,6.82,1,0,1.24-.27,1.09-1.27-.47-3.16-1-6.33-1.46-9.49q-.94-6-1.87-12c-.62-4-1.23-8-1.86-12-.16-1-.44-1.09-1.33-.54a11.74,11.74,0,0,0-4.64,5.15,8.51,8.51,0,0,0-.19,7.54,9.73,9.73,0,0,0,2.59,3,2.24,2.24,0,0,1,.49,3.06,2.16,2.16,0,0,1-3.07.31A10.79,10.79,0,0,1,108,73.06c-3.6-3.87-4.22-9.42-1.64-14.54a16.3,16.3,0,0,1,7.69-7.43A1.39,1.39,0,0,0,115,49.4c-.56-3.44-1.08-6.89-1.63-10.33-.05-.3,0-.74-.29-.85s-.58.31-.79.55A138.08,138.08,0,0,0,101.2,53.28,28,28,0,0,0,96.32,69.21Zm17.8-55.43c0,.73,0,1.57.14,2.38.51,3.6,1,7.19,1.59,10.78,0,.27,0,.61.35.72s.54-.14.73-.35a40.62,40.62,0,0,0,5.93-8.16,15.19,15.19,0,0,0,1.38-11.61c-.6-2-2-3.3-3.7-3.28a5.51,5.51,0,0,0-5.16,3.09A13.84,13.84,0,0,0,114.12,13.78Z"/><path class="cls-2" d="M120.54,29.89a.65.65,0,0,1-.52.59A.67.67,0,0,1,120.54,29.89Z"/></g></g></g></svg>