<svg xmlns="http://www.w3.org/2000/svg" viewBox="0 0 271.19 271.19"><defs><style>.cls-1{fill:#515151;}.cls-2{fill:#e38234;}.cls-3{font-size:72px;}.cls-3,.cls-4{fill:#f7941d;font-family:Impact;}.cls-4{font-size:40.25px;}</style></defs><g id="Layer_2" data-name="Layer 2"><g id="Layer_1-2" data-name="Layer 1"><rect class="cls-1" width="271.19" height="271.19"/><g id="_5vNbLS.tif" data-name="5vNbLS.tif"><path class="cls-2" d="M142.91,72.43c1-1.17,1.6-2.55,2.56-3.73a25.22,25.22,0,0,1,18.74-9.42c6.67-.43,12.77,1.5,18.61,4.51,1.8.93,3.56,1.95,5.34,2.92a2.92,2.92,0,0,0,1,.47,1.17,1.17,0,0,0,.8.47c1.93,1.32,4,2.39,6,3.52a17.26,17.26,0,0,0,3.19,1.59,2.39,2.39,0,0,0,1.47.65,8.42,8.42,0,0,0,2.73,1.36,43,43,0,0,0,11.21,3,.88.88,0,0,0,.76.08,3.94,3.94,0,0,0,.49.14,49.56,49.56,0,0,0,20-1.46,16.74,16.74,0,0,0,4-1.48,1,1,0,0,0,1-.43,5.42,5.42,0,0,0,2.5-1.24,1.47,1.47,0,0,0,1.21-.6c.22,0,.38-.09.55-.19a31.86,31.86,0,0,0,4.13-2.89,5.74,5.74,0,0,1,1.35-.89,2,2,0,0,1,2.11.2,2.07,2.07,0,0,1,.86,2.1c-.07.39-.18.77-.27,1.16a1,1,0,0,0-.43.89.5.5,0,0,0-.14.1A38.23,38.23,0,0,1,242,85.94a4.81,4.81,0,0,0-1.27,1.11,1.25,1.25,0,0,0-.87.61c-1.48.91-3,1.81-4.44,2.73a1.89,1.89,0,0,0-.61.82,19.44,19.44,0,0,1-3.25,4.7,10.32,10.32,0,0,0-1.63,1.74.61.61,0,0,0-.62.46,1.68,1.68,0,0,0-.39.16,33,33,0,0,1-12.6,5.75,1.44,1.44,0,0,0-.79.29.9.9,0,0,0-.9.2,2.41,2.41,0,0,0-1.22.59,34.37,34.37,0,0,1-24.53,5.24,33.62,33.62,0,0,1-11.18-4c-3.9-2.21-7.27-5.16-10.94-7.7a18.74,18.74,0,0,0-4-2.29,9.72,9.72,0,0,0-1.4-.4c-.35-.07-.79-.23-1,.16s.09.66.28.93a19.8,19.8,0,0,1,3,7c2,9.09-.06,17-7.24,23.19a27.5,27.5,0,0,1-10.57,5.69c-.93.27-1.05.47-.83,1.7a79.35,79.35,0,0,1,1,8,26.43,26.43,0,0,1-.72,10.13,10.82,10.82,0,0,1-9,8c-4.63.83-8.53-.55-11.3-4.44-2.65-3.72-2.6-8.23-.14-12.27a13.46,13.46,0,0,1,2.19-2.74,2.12,2.12,0,0,1,3.06-.22,2.09,2.09,0,0,1,0,3.13,10.26,10.26,0,0,0-2.54,4.13,6.58,6.58,0,0,0,7.12,8.35,7.27,7.27,0,0,0,6.87-6.4c.73-4,.22-7.87-.26-11.78-.15-1.19-.4-2.37-.54-3.57-.08-.71-.4-1-1.11-1a28.84,28.84,0,0,1-7-.41,26.71,26.71,0,0,1-16.25-9.35,24.94,24.94,0,0,1-5.83-15.87,29.92,29.92,0,0,1,1.69-10.7c.53-1.48.1-2-1.48-1.68a12.33,12.33,0,0,0-4.92,2.35c-3,2.07-5.8,4.28-8.78,6.31a33.67,33.67,0,0,1-24,5.82,31.33,31.33,0,0,1-12.33-4.27,28.53,28.53,0,0,0-7.2-2.85,29.34,29.34,0,0,1-11.9-6.43,17,17,0,0,1-3.95-5.15,4.63,4.63,0,0,0-1.94-2.07A45.63,45.63,0,0,1,24,80.16a31.84,31.84,0,0,1-5.34-8.35,2.3,2.3,0,0,1,.53-2.67,2.2,2.2,0,0,1,2.64,0c1.62,1.13,3.13,2.4,4.83,3.42a41.33,41.33,0,0,0,12.85,4.92,50.81,50.81,0,0,0,22.88-.57A57,57,0,0,0,76,71.28c4.78-2.65,9.4-5.58,14.31-8,5.27-2.59,10.77-4.26,16.7-4,9.24.46,16.61,4.27,21.48,12.38.63,1,.74,1,1.56.15a2.27,2.27,0,0,0,.56-2.11c-.77-4.77-1.57-9.54-2.14-14.34a19.9,19.9,0,0,1,1.16-10.46,9.78,9.78,0,0,1,11.23-6c2.88.51,4.63,2.57,5.61,5.19,1.91,5.14,1.3,10.16-1,15a40.29,40.29,0,0,1-6,8.76c-.19.21-.44.38-.48.69v0a.68.68,0,0,0-.52.59v0a13,13,0,0,0-2.83,3.08l-.09.33a1.45,1.45,0,0,0,0,.92c.28,1.89.58,3.77.87,5.66q.62,3.91,1.25,7.84c.08.53.32.85.92.57a.68.68,0,0,0,.62-.06c.2,0,.4,0,.6,0A20.89,20.89,0,0,1,156.13,92a1.33,1.33,0,0,0,1.58.16,6.7,6.7,0,0,1,4.43-.47l1.83.4a.26.26,0,0,0,.31.12,1.78,1.78,0,0,0,.26.22,34.72,34.72,0,0,1,6.07,3.66,26,26,0,0,0,3.32,2.37l.06,0a1.69,1.69,0,0,0,.27.32,40,40,0,0,0,10,5.85,28.5,28.5,0,0,0,17.11,1c.34-.09.87-.12.82-.58s-.53-.35-.86-.42A39.84,39.84,0,0,1,190.89,101a1.43,1.43,0,0,0-.79-.3.4.4,0,0,0-.41-.25,25.93,25.93,0,0,0-3.78-2.21h0a.41.41,0,0,0-.4-.32h0a4.07,4.07,0,0,0-.43-.4c-2-1.37-4-2.8-5.84-4.36-.88-.74-1.77-1.46-2.59-2.26A2.16,2.16,0,0,1,176.4,88a2.08,2.08,0,0,1,2.92-.37,9.55,9.55,0,0,1,.94.74A68.9,68.9,0,0,0,187,93.58a6.22,6.22,0,0,0,2.13,1.23.36.36,0,0,0,.41.31,24.83,24.83,0,0,0,4.68,2.65,4.22,4.22,0,0,0,1.82.7.56.56,0,0,0,.51.19c.16.23.43.27.66.36a28.43,28.43,0,0,0,12.45,1.69,17.78,17.78,0,0,0,5-.84.6.6,0,0,0,.52-.07,11.39,11.39,0,0,0,3.94-1.23.32.32,0,0,0,.36-.09,20.16,20.16,0,0,0,6.41-3.31c.24-.17.65-.37.48-.72s-.61-.14-.93-.07a35.29,35.29,0,0,1-5.31.91c-1.6.12-3.19.19-4.79.28a.57.57,0,0,0-.65,0,9.83,9.83,0,0,0-2.29-.22,53.45,53.45,0,0,1-18.84-5.93,24.48,24.48,0,0,0-3.42-1.75l0-.06H190c-.11-.35-.44-.42-.7-.59a19.35,19.35,0,0,1-2.58-1.68,2.11,2.11,0,0,1,2.41-3.45c.55.29,1.08.64,1.62,1a54.6,54.6,0,0,0,19,7.7,19.94,19.94,0,0,0,4.93.49.89.89,0,0,0,.81,0,24.71,24.71,0,0,0,7.81-.6,38.5,38.5,0,0,0,14.43-6.66,12.19,12.19,0,0,0,2.75-2.26.36.36,0,0,0,.32-.29,8.74,8.74,0,0,0,2.14-1.88c.1-.11.19-.25.11-.39a.34.34,0,0,0-.45-.11,12.22,12.22,0,0,0-2.46,1.07c-.12-.06-.19,0-.24.09a1.47,1.47,0,0,0-.75.13,53.12,53.12,0,0,1-20,2.57,24.89,24.89,0,0,0-3.66-.22.69.69,0,0,0-.73,0c-.23-.21-.53-.18-.81-.24-1.43-.27-2.87-.51-4.29-.83a62.1,62.1,0,0,1-16.24-6.58A19.65,19.65,0,0,0,190.16,73a1.52,1.52,0,0,0-1.15-.65,1.33,1.33,0,0,0-.6-.47c-2.08-1.19-4.14-2.43-6.26-3.56-4.83-2.58-9.84-4.61-15.44-4.73-6.54-.15-12.22,1.81-16.8,6.59a7.12,7.12,0,0,0-1.66,2.26.66.66,0,0,0-.42.66c-.48.29-.62.8-.87,1.24a30,30,0,0,0-2,5.45,2.09,2.09,0,0,1-2.76,1.48,2.3,2.3,0,0,1-1.33-2.81c.4-1.79,1.12-3.47,1.68-5.21A.94.94,0,0,0,142.91,72.43ZM155.6,97.7a2.71,2.71,0,0,0-.21-.37c-4.37-4.79-9.82-6.28-16.1-5.25a.73.73,0,0,0-.68,1c.31,1.57.38,3.18.83,4.72a.88.88,0,0,0,.15.85c0,.31,0,.62.07.93.7,4.54,1.43,9.09,2.13,13.63.75,4.86,1.49,9.71,2.21,14.58.11.78.49,1,1.17.74s1.58-.52,2.34-.85a20.6,20.6,0,0,0,10-8.29c3.2-5.43,3.34-11.16,1.05-17a12.15,12.15,0,0,0-2.45-4.08A.77.77,0,0,0,155.6,97.7ZM35.88,84.86c6,3.94,12.53,6.36,19.82,6.32a44.5,44.5,0,0,0,18.77-4.62,86.73,86.73,0,0,0,8.32-4.63,2.06,2.06,0,0,1,3,.77A2,2,0,0,1,85,85.52a61.56,61.56,0,0,1-20,8.84,39.42,39.42,0,0,1-18.7-.08c-.34-.09-.81-.42-1,0s.37.55.61.81a1.49,1.49,0,0,0,.2.15,28.25,28.25,0,0,0,10.19,4.57,30.63,30.63,0,0,0,20.41-1.5,60.62,60.62,0,0,0,14.47-9.42A10.54,10.54,0,0,1,93,87.44a2,2,0,0,1,2.62.55,2.07,2.07,0,0,1-.07,2.68,9.72,9.72,0,0,1-.87.83A77,77,0,0,1,86,98.06a44.31,44.31,0,0,1-14.53,6.4c-.61.14-1.24.22-1.85.34-.14,0-.31.09-.29.26s.12.19.22.24a4.48,4.48,0,0,0,.72.28,27.41,27.41,0,0,0,7.8,1,30.65,30.65,0,0,0,17.35-6c3.2-2.25,6.18-4.82,9.58-6.8,2.77-1.62,5.62-2.89,8.94-1.75.46.16.75-.07,1-.47.49-.81,1-1.61,1.5-2.4a137,137,0,0,1,8.93-11.85,1.49,1.49,0,0,0,.37-1.71,19.08,19.08,0,0,0-1.7-3.07,20.85,20.85,0,0,0-15.27-8.83c-5.89-.67-11.34.84-16.58,3.42-4.36,2.15-8.52,4.69-12.72,7.13-8.3,4.8-17.09,8-26.76,8.39A53.28,53.28,0,0,1,32,79.75c-1.09-.4-2.17-.83-3.4-1.3a2.46,2.46,0,0,0,.11.44c.16.2.32.4.5.59M114.79,108a24.79,24.79,0,0,0,.44,4.23,20.83,20.83,0,0,0,5.66,10.68c4.9,4.9,10.93,6.92,17.75,6.82,1,0,1.24-.26,1.1-1.26-.47-3.17-1-6.33-1.47-9.5-.62-4-1.25-8-1.86-12s-1.23-8-1.87-12c-.15-1-.43-1.1-1.32-.54a11.76,11.76,0,0,0-4.65,5.15,8.48,8.48,0,0,0-.18,7.53,9.61,9.61,0,0,0,2.58,3,2.23,2.23,0,0,1,.49,3.07,2.16,2.16,0,0,1-3.07.31,10.43,10.43,0,0,1-1.88-1.63c-3.6-3.86-4.22-9.42-1.64-14.53a16.34,16.34,0,0,1,7.7-7.44,1.38,1.38,0,0,0,.91-1.68c-.57-3.44-1.09-6.89-1.64-10.34,0-.3,0-.74-.29-.84s-.57.3-.78.55A138.05,138.05,0,0,0,119.67,92,28.08,28.08,0,0,0,114.79,108Zm17.8-55.44c0,.73,0,1.57.14,2.39.51,3.59,1.06,7.18,1.6,10.77,0,.27,0,.61.35.72s.54-.13.72-.35a39.74,39.74,0,0,0,5.94-8.16,15.24,15.24,0,0,0,1.38-11.61c-.61-2-2-3.3-3.7-3.27a5.51,5.51,0,0,0-5.16,3.09A13.68,13.68,0,0,0,132.59,52.53Z"/><path class="cls-1" d="M139,68.65a.65.65,0,0,1-.52.59A.68.68,0,0,1,139,68.65Z"/></g><text class="cls-3" transform="translate(63.11 229.94)"><tspan xml:space="preserve">M   M</tspan></text><text class="cls-4" transform="matrix(0, -0.74, 1, 0, 149.35, 228.99)">ON A</text></g></g></svg>